<svg width="119" height="126" viewBox="0 0 119 126" fill="none" xmlns="http://www.w3.org/2000/svg">
<path d="M59.5 124C91.2564 124 117 98.2959 117 66.5882C117 34.8806 91.2564 9.17647 59.5 9.17647C31.7132 9.17647 9.1875 31.6676 9.1875 59.4118C9.1875 87.156 31.7132 109.647 59.5 109.647C83.3173 109.647 102.625 90.369 102.625 66.5882C102.625 42.8075 83.3173 23.5294 59.5 23.5294C39.6523 23.5294 23.5625 39.5945 23.5625 59.4118C23.5625 79.229 39.6523 95.2941 59.5 95.2941C75.3782 95.2941 88.25 82.4421 88.25 66.5882C88.25 50.7344 75.3782 37.8824 59.5 37.8824C47.5914 37.8824 37.9375 47.5214 37.9375 59.4118C37.9375 71.3021 47.5914 80.9412 59.5 80.9412C67.4391 80.9412 73.875 74.5151 73.875 66.5882C73.875 58.6613 67.4391 52.2353 59.5 52.2353M59.5 2C27.7436 2 2 27.7041 2 59.4118C2 91.1194 27.7436 116.824 59.5 116.824C87.2868 116.824 109.812 94.3324 109.812 66.5882C109.812 38.844 87.2868 16.3529 59.5 16.3529C35.6827 16.3529 16.375 35.631 16.375 59.4118C16.375 83.1925 35.6827 102.471 59.5 102.471C79.3477 102.471 95.4375 86.4055 95.4375 66.5882C95.4375 46.771 79.3477 30.7059 59.5 30.7059C43.6218 30.7059 30.75 43.5579 30.75 59.4118C30.75 75.2656 43.6218 88.1176 59.5 88.1176C71.4086 88.1176 81.0625 78.4786 81.0625 66.5882C81.0625 54.6979 71.4086 45.0588 59.5 45.0588C51.5609 45.0588 45.125 51.4849 45.125 59.4118C45.125 67.3387 51.5609 73.7647 59.5 73.7647" stroke="white" stroke-width="4" stroke-linecap="round" stroke-linejoin="round"/>
</svg>
