<svg width="224" height="113" viewBox="0 0 224 113" fill="none" xmlns="http://www.w3.org/2000/svg">
<rect width="223.924" height="112.883" rx="8" fill="white"/>
<rect x="2.82227" y="4.70349" width="218.241" height="103.723" rx="16" fill="#FFC700"/>
<path d="M7.05469 47.5051H217.3V88.8875C217.3 97.7241 210.137 104.888 201.3 104.888H23.0547C14.2182 104.888 7.05469 97.7241 7.05469 88.8875V47.5051Z" fill="white"/>
<path d="M88.791 17.4999V19.9608H81.4277V17.4999H88.791ZM82.4336 11.7772V25.996H79.25V11.7772H82.4336ZM90.9883 11.7772V25.996H87.8145V11.7772H90.9883ZM103.02 23.535V25.996H95.4512V23.535H103.02ZM96.5352 11.7772V25.996H93.3516V11.7772H96.5352ZM102.043 17.4999V19.8827H95.4512V17.4999H102.043ZM103.029 11.7772V14.2479H95.4512V11.7772H103.029ZM113.859 23.535V25.996H106.682V23.535H113.859ZM107.766 11.7772V25.996H104.582V11.7772H107.766ZM124.699 23.535V25.996H117.521V23.535H124.699ZM118.605 11.7772V25.996H115.422V11.7772H118.605ZM137.473 18.5741V19.2089C137.473 20.2896 137.323 21.2596 137.023 22.119C136.73 22.9784 136.311 23.7108 135.764 24.3163C135.223 24.9218 134.579 25.3872 133.83 25.7128C133.088 26.0318 132.264 26.1913 131.359 26.1913C130.454 26.1913 129.628 26.0318 128.879 25.7128C128.13 25.3872 127.479 24.9218 126.926 24.3163C126.379 23.7108 125.956 22.9784 125.656 22.119C125.357 21.2596 125.207 20.2896 125.207 19.2089V18.5741C125.207 17.4934 125.357 16.5233 125.656 15.6639C125.956 14.7981 126.376 14.0624 126.916 13.4569C127.463 12.8514 128.111 12.3892 128.859 12.0702C129.608 11.7447 130.435 11.5819 131.34 11.5819C132.245 11.5819 133.072 11.7447 133.82 12.0702C134.569 12.3892 135.214 12.8514 135.754 13.4569C136.301 14.0624 136.724 14.7981 137.023 15.6639C137.323 16.5233 137.473 17.4934 137.473 18.5741ZM134.26 19.2089V18.5546C134.26 17.8319 134.195 17.1939 134.064 16.6405C133.934 16.0806 133.745 15.6119 133.498 15.2343C133.251 14.8566 132.945 14.5734 132.58 14.3846C132.215 14.1893 131.802 14.0917 131.34 14.0917C130.858 14.0917 130.438 14.1893 130.08 14.3846C129.722 14.5734 129.419 14.8566 129.172 15.2343C128.931 15.6119 128.745 16.0806 128.615 16.6405C128.492 17.1939 128.43 17.8319 128.43 18.5546V19.2089C128.43 19.925 128.492 20.563 128.615 21.1229C128.745 21.6763 128.934 22.1451 129.182 22.5292C129.429 22.9133 129.732 23.203 130.09 23.3983C130.454 23.5936 130.878 23.6913 131.359 23.6913C131.822 23.6913 132.232 23.5936 132.59 23.3983C132.954 23.203 133.26 22.9133 133.508 22.5292C133.755 22.1451 133.941 21.6763 134.064 21.1229C134.195 20.563 134.26 19.925 134.26 19.2089Z" fill="white"/>
<path d="M99.1987 35.2808L100.234 31.4673H101.196L100.869 33.1665L99.8334 36.7505H99.0473L99.1987 35.2808ZM98.725 31.4673L99.4184 35.2661L99.4916 36.7505H98.5541L97.2553 31.4673H98.725ZM102.133 35.1929L102.822 31.4673H104.291L103.002 36.7505H102.065L102.133 35.1929ZM101.313 31.4673L102.358 35.2612L102.509 36.7505H101.713L100.688 33.1714L100.375 31.4673H101.313ZM107.436 36.8481C107.016 36.8481 106.64 36.7814 106.308 36.6479C105.976 36.5145 105.694 36.3306 105.463 36.0962C105.235 35.8586 105.061 35.5851 104.941 35.2759C104.82 34.9666 104.76 34.6362 104.76 34.2847V34.0991C104.76 33.7052 104.816 33.3423 104.926 33.0103C105.037 32.6782 105.198 32.3901 105.41 32.146C105.624 31.8986 105.888 31.7082 106.201 31.5747C106.513 31.438 106.87 31.3696 107.27 31.3696C107.644 31.3696 107.978 31.4315 108.271 31.5552C108.564 31.6756 108.811 31.8498 109.013 32.0776C109.215 32.3022 109.368 32.5741 109.472 32.8931C109.58 33.2088 109.633 33.5636 109.633 33.9575V34.5825H105.375V33.6011H108.139V33.4839C108.139 33.2983 108.105 33.1356 108.037 32.9956C107.971 32.8556 107.874 32.7482 107.744 32.6733C107.617 32.5952 107.455 32.5562 107.26 32.5562C107.075 32.5562 106.92 32.5952 106.796 32.6733C106.673 32.7515 106.573 32.8621 106.498 33.0054C106.427 33.1453 106.375 33.3097 106.342 33.4985C106.31 33.6841 106.293 33.8843 106.293 34.0991V34.2847C106.293 34.4897 106.321 34.6769 106.376 34.8462C106.432 35.0155 106.513 35.1603 106.621 35.2808C106.728 35.4012 106.858 35.4956 107.011 35.564C107.164 35.6323 107.338 35.6665 107.534 35.6665C107.775 35.6665 108.004 35.6209 108.222 35.5298C108.44 35.4354 108.629 35.2889 108.789 35.0903L109.501 35.9058C109.394 36.062 109.243 36.2134 109.047 36.3599C108.855 36.5031 108.624 36.6203 108.354 36.7114C108.084 36.8026 107.778 36.8481 107.436 36.8481ZM115.664 35.4907V33.2251C115.664 33.0656 115.639 32.9289 115.59 32.8149C115.541 32.701 115.465 32.6115 115.361 32.5464C115.257 32.4813 115.122 32.4487 114.955 32.4487C114.816 32.4487 114.693 32.4731 114.589 32.522C114.488 32.5708 114.41 32.6408 114.355 32.7319C114.303 32.8231 114.277 32.9354 114.277 33.0688H112.753C112.753 32.8312 112.807 32.6099 112.914 32.4048C113.022 32.1997 113.175 32.019 113.373 31.8628C113.575 31.7065 113.816 31.5861 114.096 31.5015C114.376 31.4136 114.69 31.3696 115.039 31.3696C115.452 31.3696 115.82 31.4396 116.142 31.5796C116.468 31.7163 116.725 31.923 116.914 32.1997C117.102 32.4731 117.197 32.8182 117.197 33.2349V35.4468C117.197 35.7658 117.215 36.0164 117.25 36.1987C117.289 36.3778 117.345 36.534 117.416 36.6675V36.7505H115.878C115.807 36.5975 115.753 36.4087 115.717 36.1841C115.681 35.9562 115.664 35.7251 115.664 35.4907ZM115.854 33.5278L115.864 34.3677H115.107C114.938 34.3677 114.791 34.3888 114.667 34.4312C114.547 34.4735 114.449 34.5321 114.374 34.6069C114.3 34.6785 114.244 34.7632 114.208 34.8608C114.176 34.9552 114.16 35.0594 114.16 35.1733C114.16 35.2808 114.186 35.3784 114.238 35.4663C114.29 35.5509 114.361 35.6177 114.453 35.6665C114.544 35.7153 114.65 35.7397 114.77 35.7397C114.969 35.7397 115.138 35.7007 115.278 35.6226C115.421 35.5444 115.532 35.45 115.61 35.3394C115.688 35.2254 115.727 35.1196 115.727 35.022L116.093 35.6567C116.035 35.7869 115.963 35.922 115.878 36.062C115.794 36.1987 115.686 36.3273 115.556 36.4478C115.426 36.5649 115.268 36.661 115.082 36.7358C114.9 36.8107 114.68 36.8481 114.423 36.8481C114.091 36.8481 113.79 36.7814 113.52 36.6479C113.25 36.5112 113.033 36.3241 112.871 36.0864C112.711 35.8488 112.631 35.5754 112.631 35.2661C112.631 34.9894 112.682 34.7437 112.783 34.5288C112.884 34.314 113.035 34.1317 113.237 33.9819C113.442 33.8322 113.699 33.7199 114.008 33.645C114.317 33.5669 114.679 33.5278 115.092 33.5278H115.854ZM119.726 32.6978V36.7505H118.203V31.4673H119.633L119.726 32.6978ZM121.303 31.4282L121.279 32.8491C121.214 32.8394 121.129 32.8312 121.025 32.8247C120.921 32.8149 120.831 32.8101 120.756 32.8101C120.561 32.8101 120.392 32.8345 120.248 32.8833C120.108 32.9289 119.991 32.9972 119.897 33.0884C119.806 33.1795 119.737 33.2935 119.692 33.4302C119.646 33.5636 119.623 33.7183 119.623 33.894L119.335 33.7524C119.335 33.4041 119.37 33.0851 119.438 32.7954C119.506 32.5057 119.606 32.255 119.736 32.0435C119.866 31.8286 120.025 31.6626 120.214 31.5454C120.403 31.4282 120.618 31.3696 120.859 31.3696C120.937 31.3696 121.017 31.3745 121.098 31.3843C121.179 31.394 121.248 31.4087 121.303 31.4282ZM124.321 36.8481C123.901 36.8481 123.525 36.7814 123.193 36.6479C122.861 36.5145 122.579 36.3306 122.348 36.0962C122.12 35.8586 121.946 35.5851 121.826 35.2759C121.705 34.9666 121.645 34.6362 121.645 34.2847V34.0991C121.645 33.7052 121.7 33.3423 121.811 33.0103C121.922 32.6782 122.083 32.3901 122.294 32.146C122.509 31.8986 122.773 31.7082 123.085 31.5747C123.398 31.438 123.754 31.3696 124.155 31.3696C124.529 31.3696 124.863 31.4315 125.156 31.5552C125.449 31.6756 125.696 31.8498 125.898 32.0776C126.1 32.3022 126.253 32.5741 126.357 32.8931C126.464 33.2088 126.518 33.5636 126.518 33.9575V34.5825H122.26V33.6011H125.024V33.4839C125.024 33.2983 124.99 33.1356 124.921 32.9956C124.856 32.8556 124.759 32.7482 124.628 32.6733C124.501 32.5952 124.34 32.5562 124.145 32.5562C123.959 32.5562 123.805 32.5952 123.681 32.6733C123.557 32.7515 123.458 32.8621 123.383 33.0054C123.312 33.1453 123.26 33.3097 123.227 33.4985C123.194 33.6841 123.178 33.8843 123.178 34.0991V34.2847C123.178 34.4897 123.206 34.6769 123.261 34.8462C123.316 35.0155 123.398 35.1603 123.505 35.2808C123.613 35.4012 123.743 35.4956 123.896 35.564C124.049 35.6323 124.223 35.6665 124.418 35.6665C124.659 35.6665 124.889 35.6209 125.107 35.5298C125.325 35.4354 125.514 35.2889 125.673 35.0903L126.386 35.9058C126.279 36.062 126.127 36.2134 125.932 36.3599C125.74 36.5031 125.509 36.6203 125.239 36.7114C124.969 36.8026 124.663 36.8481 124.321 36.8481Z" fill="white"/>
<path d="M23.4461 81.6739C23.7335 80.7887 23.8352 79.892 23.7511 78.9838C23.6847 78.2669 23.4965 77.6224 23.1864 77.0503C22.8909 76.4612 22.462 75.9933 21.8998 75.6468C21.525 75.4158 21.178 75.3111 20.8587 75.3328C20.731 75.3415 20.5744 75.3842 20.3887 75.461C20.5383 75.5149 20.6204 75.6216 20.6352 75.7809C20.6441 75.8765 20.6225 75.9902 20.5704 76.122C20.2682 76.8479 20.0517 77.6322 19.9209 78.4748C19.7887 79.3014 19.7609 80.1289 19.8377 80.9574C19.9262 81.9133 20.154 82.8116 20.521 83.6524C20.7569 84.1173 20.9911 84.4782 21.2237 84.7349C21.3298 84.8399 21.433 84.9131 21.5332 84.9543C21.9666 84.6042 22.3403 84.1299 22.6543 83.5314C22.9843 82.9318 23.2482 82.3126 23.4461 81.6739ZM22.3338 73.3086C23.1308 73.4148 23.833 73.7117 24.4404 74.1995C25.0478 74.6872 25.5298 75.2957 25.8865 76.025C26.2418 76.7383 26.4563 77.4933 26.5301 78.2899C26.6172 79.2298 26.5229 80.2062 26.2472 81.2189C25.9716 82.2317 25.5529 83.174 24.9911 84.0458C24.4293 84.9177 23.7794 85.6192 23.0415 86.1504C22.3485 86.6464 21.6509 86.9183 20.9485 86.9661C20.2461 87.0138 19.6116 86.8405 19.045 86.4462C18.4783 86.0519 18.0377 85.4566 17.723 84.6603C17.3748 83.8503 17.1528 82.9275 17.0569 81.892C16.9993 81.2706 16.9911 80.662 17.0323 80.066C16.9235 80.1055 16.7574 80.1328 16.5339 80.148C15.9911 80.1849 15.7028 80.0201 15.6689 79.6537C15.657 79.5262 15.6634 79.4216 15.688 79.3398C16.0905 77.7893 16.7829 76.4196 17.765 75.2306C18.7617 74.0245 19.9704 73.3732 21.3911 73.2766C21.5986 73.2624 21.9129 73.2731 22.3338 73.3086ZM34.7105 77.4931C35.2873 76.9569 35.7496 76.4846 36.0973 76.0761C36.4609 75.6666 36.7288 75.2636 36.9009 74.8672C36.0182 74.7027 34.7072 74.4232 32.9679 74.0284L33.2976 78.8878C33.7396 78.4569 33.9968 78.1989 34.0692 78.1139L34.7105 77.4931ZM38.8755 80.5766C38.9796 80.313 39.2311 80.0795 39.6299 79.876C40.0272 79.6566 40.4174 79.5339 40.8005 79.5078C41.3273 79.472 41.6062 79.6214 41.6372 79.9559C41.6461 80.0515 41.6324 80.1647 41.5964 80.2954C41.0836 81.8694 40.726 83.3847 40.5236 84.8413C40.4733 85.1654 40.2691 85.4759 39.9111 85.7728C39.7706 85.9907 39.5394 86.1828 39.2175 86.349C38.9115 86.5141 38.5989 86.6075 38.2796 86.6292C38.0083 86.6476 37.7796 86.6071 37.5937 86.5075C37.4237 86.4068 37.3197 86.2376 37.2816 85.9997C37.1218 84.9684 36.6908 84.0438 35.9885 83.2259C35.3022 82.4068 34.4684 81.9024 33.487 81.7126L33.6882 85.1859C33.7003 85.4897 33.4707 85.7859 32.9995 86.0744C32.5442 86.3619 32.0931 86.5208 31.6461 86.5512C31.4067 86.5675 31.2114 86.5407 31.0604 86.4708C30.9079 86.385 30.8227 86.2465 30.805 86.0553L30.5714 82.7525C30.3506 82.6233 30.2313 82.463 30.2136 82.2719C30.1929 82.0488 30.2927 81.8256 30.513 81.6022C30.3242 78.6972 30.1521 75.7991 29.9967 72.9078C29.9817 72.5721 30.1786 72.2702 30.5875 72.0019C31.0108 71.7166 31.446 71.5587 31.893 71.5283C32.2282 71.5055 32.475 71.5689 32.6334 71.7185C34.4177 72.0781 36.2702 72.4812 38.1911 72.9277C38.4725 72.8445 38.6691 72.799 38.7808 72.7914C39.0522 72.773 39.2656 72.8226 39.4211 72.9403C39.5911 73.0409 39.6871 73.2108 39.7092 73.4497C39.7698 74.1029 39.6103 74.723 39.231 75.3099C38.8502 75.8809 38.3076 76.527 37.6034 77.2483L37.1643 77.711C36.4675 78.5119 35.7864 79.2235 35.1212 79.8459C36.4641 80.1234 37.5849 80.7766 38.4834 81.8057C38.5325 81.642 38.6632 81.2323 38.8755 80.5766ZM47.9573 80.9931C49.5139 79.5887 50.7039 78.129 51.5274 76.614C50.2149 76.3185 48.8583 75.6332 47.4575 74.5581C47.5599 76.0101 47.7265 78.1551 47.9573 80.9931ZM54.3748 75.0978C54.4939 75.1698 54.5593 75.2696 54.5712 75.397C54.5815 75.5086 54.5599 75.6223 54.5064 75.7381C53.8109 77.4207 52.827 78.9385 51.5548 80.2916C50.2826 81.6446 48.7151 83.0177 46.8523 84.411C46.671 84.5355 46.4651 84.6537 46.2345 84.7656C46.0025 84.8615 45.7747 84.9171 45.5512 84.9323C45.3118 84.9486 45.0983 84.899 44.9109 84.7835C44.7061 84.6531 44.5941 84.4844 44.5749 84.2772C44.5498 84.0064 44.6793 83.7571 44.9634 83.5294C44.9939 83.5113 45.0236 83.4852 45.0526 83.4512C45.0815 83.4171 45.1265 83.382 45.1874 83.3458L44.7341 77.4127C44.6465 76.12 44.4962 74.1503 44.2831 71.5034C44.2642 71.4727 44.251 71.4174 44.2437 71.3378C44.2407 71.3059 44.2493 71.2252 44.2694 71.0955L44.2451 70.8327C44.233 70.5289 44.4169 70.2599 44.7968 70.0256C45.1752 69.7754 45.5879 69.6351 46.0349 69.6047C46.3382 69.5841 46.5828 69.6236 46.7687 69.7232C46.9706 69.8217 47.0826 69.9904 47.1047 70.2294L47.1269 70.4684C49.3049 72.9976 51.5626 74.4794 53.8999 74.9136C54.1467 74.977 54.305 75.0384 54.3748 75.0978ZM58.0478 71.5293C58.0343 71.2096 58.2399 70.9151 58.6647 70.6457C59.0881 70.3604 59.5232 70.2025 59.9702 70.1722C60.2256 70.1548 60.4383 70.1964 60.6083 70.2971C60.7768 70.3818 60.8634 70.5363 60.8681 70.7604L61.3757 83.7841C61.3908 84.1197 61.1866 84.4302 60.7633 84.7155C60.3384 84.9849 59.9025 85.1347 59.4556 85.1651C58.8649 85.2053 58.5562 84.9938 58.5294 84.5307L58.0478 71.5293ZM57.7077 68.3781C57.6964 68.6033 57.7678 68.7668 57.9218 68.8686C58.0918 68.9692 58.3045 69.0109 58.5599 68.9935C58.9909 68.9642 59.4188 68.8149 59.8436 68.5455C60.2685 68.2761 60.4893 67.9725 60.5062 67.6347C60.5601 66.8294 60.5926 66.226 60.6036 65.8244C60.6305 65.4218 60.3646 65.2395 59.8059 65.2775C59.3749 65.3068 58.939 65.4567 58.4982 65.7271C58.0574 65.9976 57.8351 66.2853 57.8312 66.5901L57.7077 68.3781ZM73.6866 69.6723C73.5721 72.5979 73.6336 75.3432 73.8713 77.9083C73.9864 79.1509 74.1509 80.4063 74.3647 81.6743C74.4055 81.7677 74.4288 81.8463 74.4347 81.91C74.4392 81.9578 74.4298 82.0306 74.4068 82.1284C74.4082 82.1443 74.401 82.1528 74.385 82.1539L74.3895 82.2017C74.3188 82.4791 74.1174 82.7332 73.7854 82.9642C73.452 83.1793 73.0871 83.3163 72.691 83.3753C72.0584 83.4825 71.6598 83.3412 71.4952 82.9516C70.7977 81.492 69.7199 79.4811 68.2617 76.919L67.9124 76.2694C67.9692 78.2695 68.0864 80.4019 68.2641 82.6663C68.295 83.0009 68.0996 83.3188 67.6777 83.62C67.2544 83.9053 66.8112 84.0637 66.3483 84.0952C66.061 84.1148 65.8243 84.0747 65.6384 83.9752C65.4525 83.8756 65.3557 83.6978 65.348 83.4418C65.0424 79.1018 64.9736 74.9782 65.1418 71.071L65.1569 70.9738C65.0925 70.6254 65.2785 70.2921 65.7148 69.9739C66.1512 69.6556 66.6008 69.4808 67.0638 69.4493C67.5427 69.4167 67.8527 69.556 67.994 69.867C68.6332 71.2183 69.5568 72.9511 70.7646 75.0654C70.7217 73.5613 70.7484 72.0284 70.8446 70.4667C70.863 70.1449 71.0926 69.8487 71.5334 69.5782C71.9727 69.2918 72.4158 69.1334 72.8628 69.103C73.4375 69.064 73.7121 69.2537 73.6866 69.6723ZM82.8759 75.4683L82.7286 75.9592L84.5354 77.2552L84.3035 76.5736C84.1505 76.1351 83.8392 75.2024 83.3696 73.7754L82.8759 75.4683ZM84.9592 68.3045C85.311 69.6754 85.721 71.0664 86.1891 72.4774C86.6716 73.8715 87.2459 75.4757 87.912 77.2901C88.5372 79.0112 88.9483 80.1536 89.1451 80.7173C89.1655 80.764 89.1801 80.8352 89.1889 80.9308C89.2244 81.3131 89.0399 81.6624 88.6354 81.9784C88.2295 82.2786 87.7951 82.4444 87.3321 82.4759C86.949 82.5019 86.6441 82.4185 86.4174 82.2255C85.9087 81.7631 85.3783 81.3262 84.8262 80.9148C84.274 80.5035 83.5527 79.9994 82.6621 79.4027L81.8121 78.8112C81.2745 80.2906 80.8538 81.3854 80.5501 82.0954C80.4605 82.342 80.1859 82.5851 79.7262 82.8248C79.281 83.0474 78.8588 83.1723 78.4597 83.1995C78.0128 83.2299 77.776 83.1017 77.7494 82.8149C77.7421 82.7352 77.7571 82.638 77.7947 82.5233C78.1644 81.3117 78.6056 79.919 79.1184 78.345L79.5084 77.0921C79.0724 76.7209 78.8544 76.5353 78.8544 76.5353C78.7323 76.4314 78.6647 76.3077 78.6514 76.1644C78.6263 75.8935 78.7783 75.6267 79.1073 75.3638C79.4349 75.085 79.8105 74.8911 80.2341 74.7822C80.8306 72.8979 81.3763 70.985 81.8711 69.0436C81.9143 68.8162 82.0961 68.6114 82.4166 68.4293C82.7516 68.2302 83.1084 68.0937 83.4871 68.0199C83.7511 67.9217 83.9788 67.8662 84.1704 67.8531C84.6174 67.8228 84.8803 67.9732 84.9592 68.3045ZM96.8966 73.2643C97.4734 72.7281 97.9356 72.2558 98.2833 71.8474C98.647 71.4379 98.9149 71.0349 99.087 70.6384C98.2043 70.474 96.8933 70.1944 95.154 69.7996L95.4836 74.659C95.9256 74.2282 96.1829 73.9702 96.2553 73.8851L96.8966 73.2643ZM101.062 76.3479C101.166 76.0843 101.417 75.8507 101.816 75.6473C102.213 75.4278 102.603 75.3051 102.987 75.2791C103.513 75.2432 103.792 75.3926 103.823 75.7272C103.832 75.8228 103.819 75.9359 103.782 76.0666C103.27 77.6406 102.912 79.1559 102.71 80.6126C102.659 80.9366 102.455 81.2471 102.097 81.544C101.957 81.762 101.726 81.954 101.404 82.1202C101.098 82.2853 100.785 82.3787 100.466 82.4004C100.194 82.4189 99.9657 82.3783 99.7797 82.2787C99.6098 82.1781 99.5058 82.0088 99.4677 81.7709C99.3079 80.7397 98.8768 79.8151 98.1746 78.9971C97.4883 78.178 96.6544 77.6736 95.673 77.4838L95.8743 80.9571C95.8864 81.2609 95.6568 81.5571 95.1856 81.8457C94.7303 82.1331 94.2792 82.2921 93.8322 82.3225C93.5928 82.3387 93.3975 82.3119 93.2465 82.242C93.0939 82.1562 93.0088 82.0177 92.9911 81.8265L92.7574 78.5238C92.5366 78.3945 92.4174 78.2343 92.3997 78.0431C92.379 77.8201 92.4788 77.5968 92.6991 77.3734C92.5103 74.4684 92.3382 71.5703 92.1828 68.679C92.1678 68.3434 92.3647 68.0414 92.7735 67.7731C93.1969 67.4878 93.6321 67.33 94.079 67.2996C94.4143 67.2768 94.6611 67.3402 94.8195 67.4897C96.6038 67.8493 98.4563 68.2524 100.377 68.699C100.659 68.6157 100.855 68.5703 100.967 68.5627C101.238 68.5442 101.452 68.5938 101.607 68.7115C101.777 68.8122 101.873 68.982 101.895 69.221C101.956 69.8742 101.796 70.4942 101.417 71.0812C101.036 71.6522 100.494 72.2983 99.7894 73.0195L99.3504 73.4822C98.6535 74.2831 97.9725 74.9948 97.3073 75.6172C98.6502 75.8946 99.7709 76.5478 100.669 77.5769C100.719 77.4133 100.849 77.0036 101.062 76.3479ZM111.676 67.0408C111.613 66.7084 111.794 66.3996 112.217 66.1143C112.655 65.812 113.097 65.6456 113.544 65.6152C114.039 65.5815 114.326 65.7304 114.405 66.0617C114.992 68.5869 115.466 70.7591 115.828 72.5782C116.189 74.3973 116.453 76.207 116.62 78.0073C116.844 80.429 116.851 82.5848 116.641 84.4749C116.475 85.9772 116.159 87.3373 115.693 88.5553C115.228 89.7734 114.523 90.7432 113.577 91.4648C112.796 92.047 111.982 92.3668 111.136 92.4244C110.354 92.4776 109.569 92.3226 108.78 91.9593C107.993 91.6121 107.24 91.1102 106.52 90.4537C106.378 90.3031 106.301 90.172 106.291 90.0605C106.261 89.7418 106.465 89.4234 106.901 89.1051C107.323 88.8039 107.765 88.6375 108.228 88.6061C108.548 88.5843 108.803 88.6551 108.995 88.8185C109.082 88.8927 109.292 89.0788 109.625 89.3768C109.958 89.6748 110.294 89.9245 110.634 90.1258C110.99 90.3261 111.304 90.417 111.575 90.3985C111.719 90.3888 111.821 90.3658 111.882 90.3296C112.175 90.1974 112.414 89.9166 112.599 89.4872C112.8 89.0567 112.956 88.6613 113.067 88.301C113.179 87.9408 113.246 87.7197 113.271 87.6379C113.566 86.6559 113.751 85.6253 113.828 84.5459C113.906 83.4825 113.917 82.2954 113.859 80.9846C113.797 79.9628 113.741 79.189 113.693 78.6633C113.347 79.4403 112.915 80.0629 112.396 80.531C111.875 80.9833 111.216 81.2365 110.418 81.2908C109.285 81.3679 108.496 80.9165 108.052 79.9367C107.622 78.9398 107.331 77.7091 107.18 76.2444L107.067 75.2902C106.837 72.8048 106.876 70.4534 107.185 68.236C107.221 67.929 107.467 67.6397 107.924 67.3682C108.38 67.0966 108.824 66.9462 109.255 66.9169C109.479 66.9017 109.659 66.9375 109.795 67.0244C109.932 67.1113 109.992 67.2435 109.977 67.4209C109.781 69.294 109.734 71.3092 109.838 73.4665C109.868 74.1378 109.9 74.6566 109.934 75.0231C109.99 75.6285 110.093 76.3029 110.242 77.0462C110.4 77.7089 110.556 78.1792 110.71 78.4573L110.937 78.8266C111.029 78.6119 111.152 78.2909 111.305 77.8637C111.61 76.8169 111.816 75.5685 111.922 74.1183L112.029 72.9327C112.201 71.4941 112.249 70.3606 112.172 69.5322C112.134 69.1179 112.089 68.8084 112.038 68.6034L111.676 67.0408ZM138.022 72.103C138.205 71.4813 138.271 70.8917 138.22 70.334C138.152 69.6012 137.889 69.0179 137.431 68.5841C136.741 67.8935 135.663 67.6141 134.197 67.7459C134.143 70.2826 134.2 73.3328 134.37 76.8965C135.236 76.3566 135.991 75.672 136.637 74.8425C137.282 73.997 137.743 73.0839 138.022 72.103ZM134.264 65.8656C134.438 65.8377 134.708 65.8113 135.076 65.7863C137.023 65.6539 138.52 66.033 139.566 66.9238C140.35 67.576 140.792 68.4517 140.894 69.551C140.947 70.1245 140.883 70.8183 140.701 71.6322C140.313 73.1656 139.56 74.5716 138.441 75.8501C137.322 77.1126 136 78.1083 134.477 78.8371C134.564 80.4665 134.648 81.8876 134.728 83.1006C134.809 84.3295 134.88 85.3508 134.939 86.1644C135.103 88.1092 135.236 90.0641 135.338 92.0291C135.353 92.3648 135.141 92.6758 134.702 92.9622C134.262 93.2486 133.803 93.408 133.324 93.4406C132.766 93.4786 132.467 93.2905 132.429 92.8763L132.275 90.9628C132.234 90.3404 132.119 88.8412 131.931 86.4652C131.759 84.0881 131.626 81.8687 131.531 79.807C131.105 79.8841 130.684 79.9367 130.269 79.9649C129.965 79.9856 129.738 79.953 129.585 79.8672C129.417 79.7824 129.325 79.6604 129.31 79.5011C129.284 79.2143 129.455 78.898 129.825 78.5523C130.178 78.2076 130.555 78.0217 130.954 77.9945C131.177 77.9793 131.336 77.9605 131.43 77.9381C131.289 74.5008 131.255 71.1924 131.33 68.0129C131.213 67.9568 131.147 67.8571 131.134 67.7137C131.116 67.5225 131.199 67.2924 131.383 67.0234C131.374 66.9278 131.375 66.7674 131.387 66.5422C131.404 66.2043 131.632 65.9002 132.073 65.6297C132.513 65.3434 132.948 65.1855 133.379 65.1562C133.65 65.1377 133.863 65.1794 134.017 65.2811C134.187 65.3818 134.266 65.5448 134.255 65.77L134.264 65.8656ZM154.744 75.3427C154.991 75.406 155.124 75.5413 155.143 75.7484C155.167 76.0033 155.041 76.2924 154.765 76.6158C154.461 76.9731 154.046 77.1697 153.519 77.2055C153.264 77.2229 153.045 77.2057 152.864 77.1539C151.992 76.9406 151.214 76.8573 150.527 76.904C149.33 76.9854 148.144 77.4508 146.97 78.3002C146.776 78.4577 146.531 78.5945 146.237 78.7107C145.957 78.8099 145.689 78.8682 145.434 78.8856C145.194 78.9019 144.999 78.8751 144.848 78.8052C144.696 78.7194 144.61 78.5809 144.593 78.3897C144.582 78.2782 144.59 78.1815 144.614 78.0997C144.957 76.7777 145.217 75.5897 145.392 74.5357C145.584 73.4806 145.678 72.4161 145.675 71.3421C145.686 69.8985 145.66 68.8421 145.598 68.173C145.434 66.4045 144.966 65.0737 144.192 64.1804C144.103 64.0902 144.052 63.9655 144.037 63.8062C144.007 63.4875 144.204 63.1776 144.626 62.8764C145.046 62.5592 145.472 62.386 145.903 62.3566C146.19 62.3371 146.403 62.3867 146.543 62.5055C146.758 62.571 146.905 62.6893 146.985 62.8602C147.482 63.8845 148.115 64.7393 148.886 65.4244C149.654 66.0935 150.518 66.3955 151.475 66.3304C151.651 66.3185 151.911 66.2687 152.257 66.1811C152.477 66.134 152.619 66.1083 152.683 66.104C152.955 66.0855 153.16 66.1357 153.3 66.2545C153.454 66.3562 153.54 66.5106 153.559 66.7178C153.58 66.9408 153.505 67.1704 153.334 67.4064C153.179 67.6414 152.954 67.817 152.66 67.9332C152.026 68.2008 151.382 68.3568 150.727 68.4013C149.945 68.4545 149.18 68.3462 148.432 68.0764C148.483 68.9708 148.505 69.6426 148.499 70.092L148.471 71.6089C149.083 71.4551 149.696 71.3171 150.312 71.1951L150.645 71.1485C151.283 71.105 151.622 71.2984 151.662 71.7286C151.689 72.0153 151.553 72.2811 151.254 72.5259C150.956 72.7706 150.642 72.9362 150.312 73.0228C149.826 73.152 149.157 73.3017 148.306 73.4718C148.202 74.2644 148.079 75.0103 147.935 75.7095C148.953 75.2555 150.005 74.9916 151.09 74.9178C152.287 74.8364 153.505 74.978 154.744 75.3427ZM165.213 72.0336C165.5 71.1483 165.602 70.2516 165.518 69.3435C165.451 68.6265 165.263 67.982 164.953 67.4099C164.658 66.8208 164.229 66.3529 163.667 66.0064C163.292 65.7754 162.945 65.6707 162.625 65.6924C162.498 65.7011 162.341 65.7438 162.155 65.8206C162.305 65.8745 162.387 65.9812 162.402 66.1405C162.411 66.2361 162.389 66.3498 162.337 66.4816C162.035 67.2075 161.818 67.9918 161.688 68.8344C161.555 69.661 161.528 70.4886 161.604 71.317C161.693 72.2729 161.921 73.1713 162.288 74.012C162.524 74.477 162.758 74.8378 162.99 75.0945C163.096 75.1995 163.2 75.2727 163.3 75.314C163.733 74.9638 164.107 74.4895 164.421 73.891C164.751 73.2914 165.015 72.6723 165.213 72.0336ZM164.1 63.6683C164.897 63.7744 165.6 64.0713 166.207 64.5591C166.814 65.0468 167.297 65.6554 167.653 66.3846C168.008 67.0979 168.223 67.8529 168.297 68.6495C168.384 69.5894 168.29 70.5658 168.014 71.5785C167.738 72.5913 167.32 73.5336 166.758 74.4055C166.196 75.2773 165.546 75.9788 164.808 76.51C164.115 77.006 163.418 77.2779 162.715 77.3257C162.013 77.3734 161.378 77.2001 160.812 76.8058C160.245 76.4115 159.804 75.8162 159.49 75.0199C159.142 74.2099 158.919 73.2872 158.824 72.2516C158.766 71.6303 158.758 71.0216 158.799 70.4256C158.69 70.4651 158.524 70.4924 158.301 70.5076C157.758 70.5445 157.469 70.3797 157.436 70.0133C157.424 69.8859 157.43 69.7812 157.455 69.6994C157.857 68.149 158.55 66.7792 159.532 65.5902C160.528 64.3841 161.737 63.7328 163.158 63.6362C163.365 63.6221 163.68 63.6328 164.1 63.6683ZM179.286 69.297C179.469 68.6753 179.535 68.0857 179.483 67.5281C179.415 66.7952 179.152 66.2119 178.695 65.7781C178.004 65.0875 176.926 64.8081 175.46 64.9399C175.406 67.4766 175.464 70.5268 175.633 74.0905C176.499 73.5507 177.255 72.866 177.901 72.0365C178.545 71.191 179.007 70.2779 179.286 69.297ZM175.527 63.0596C175.701 63.0317 175.972 63.0053 176.339 62.9803C178.287 62.8479 179.783 63.2271 180.83 64.1178C181.613 64.77 182.056 65.6457 182.157 66.745C182.211 67.3185 182.146 68.0123 181.965 68.8262C181.577 70.3597 180.823 71.7656 179.705 73.0441C178.585 74.3066 177.264 75.3023 175.741 76.0311C175.828 77.6605 175.911 79.0816 175.991 80.2946C176.073 81.5236 176.143 82.5448 176.203 83.3584C176.367 85.3032 176.5 87.2581 176.601 89.2231C176.616 89.5588 176.404 89.8698 175.965 90.1562C175.526 90.4426 175.067 90.6021 174.588 90.6346C174.029 90.6726 173.73 90.4845 173.692 90.0703L173.539 88.1568C173.497 87.5344 173.383 86.0352 173.195 83.6592C173.023 81.2821 172.889 79.0627 172.795 77.001C172.368 77.0781 171.947 77.1307 171.532 77.159C171.229 77.1796 171.001 77.147 170.848 77.0612C170.68 76.9764 170.588 76.8544 170.574 76.6951C170.547 76.4083 170.719 76.092 171.088 75.7463C171.442 75.4016 171.818 75.2157 172.217 75.1885C172.441 75.1733 172.6 75.1545 172.694 75.1321C172.552 71.6948 172.519 68.3864 172.594 65.207C172.476 65.1508 172.411 65.0511 172.397 64.9077C172.38 64.7165 172.463 64.4864 172.647 64.2174C172.638 64.1218 172.639 63.9614 172.65 63.7362C172.667 63.3984 172.896 63.0942 173.337 62.8238C173.776 62.5374 174.211 62.3795 174.642 62.3502C174.914 62.3318 175.126 62.3734 175.28 62.4752C175.45 62.5758 175.53 62.7388 175.518 62.964L175.527 63.0596ZM186.896 56.6351C186.9 56.3303 187.13 56.0421 187.587 55.7705C188.042 55.483 188.485 55.3246 188.916 55.2953C189.427 55.2606 189.692 55.435 189.712 55.8184C189.721 58.6876 189.662 62.6515 189.536 67.7102C189.471 71.1615 189.429 73.4009 189.412 74.4281C189.411 74.7648 189.183 75.0849 188.73 75.3883C188.29 75.6747 187.847 75.8331 187.4 75.8635C186.778 75.9058 186.469 75.6943 186.474 75.2291C186.525 69.7105 186.666 63.5126 186.896 56.6351ZM204.61 71.9517C204.856 72.0151 204.989 72.1503 205.009 72.3574C205.032 72.6123 204.906 72.9015 204.631 73.2248C204.327 73.5822 203.911 73.7788 203.385 73.8146C203.129 73.8319 202.911 73.8147 202.729 73.7629C201.858 73.5496 201.079 73.4663 200.393 73.513C199.196 73.5944 198.01 74.0598 196.836 74.9092C196.641 75.0667 196.397 75.2036 196.103 75.3198C195.823 75.419 195.555 75.4773 195.3 75.4946C195.06 75.5109 194.865 75.4841 194.714 75.4142C194.561 75.3284 194.476 75.1899 194.459 74.9987C194.448 74.8872 194.455 74.7905 194.48 74.7087C194.823 73.3867 195.083 72.1988 195.258 71.1447C195.45 70.0896 195.544 69.0251 195.541 67.9512C195.551 66.5075 195.526 65.4511 195.464 64.782C195.3 63.0136 194.831 61.6827 194.058 60.7894C193.969 60.6993 193.918 60.5745 193.903 60.4152C193.873 60.0966 194.069 59.7866 194.491 59.4854C194.912 59.1682 195.337 58.995 195.768 58.9657C196.056 58.9461 196.269 58.9958 196.409 59.1145C196.624 59.1801 196.771 59.2983 196.851 59.4692C197.348 60.4936 197.981 61.3483 198.751 62.0334C199.52 62.7026 200.383 63.0046 201.341 62.9395C201.517 62.9275 201.777 62.8777 202.122 62.7901C202.343 62.7431 202.485 62.7174 202.549 62.713C202.82 62.6946 203.026 62.7447 203.165 62.8635C203.319 62.9653 203.406 63.1197 203.425 63.3268C203.446 63.5498 203.371 63.7794 203.2 64.0155C203.045 64.2505 202.82 64.4261 202.526 64.5423C201.892 64.8098 201.248 64.9659 200.593 65.0104C199.811 65.0636 199.046 64.9553 198.298 64.6855C198.349 65.5798 198.371 66.2517 198.364 66.701L198.336 68.218C198.949 68.0641 199.562 67.9262 200.177 67.8042L200.51 67.7575C201.149 67.7141 201.488 67.9074 201.528 68.3376C201.555 68.6244 201.419 68.8901 201.12 69.1349C200.821 69.3796 200.507 69.5453 200.178 69.6318C199.692 69.761 199.023 69.9107 198.172 70.0809C198.068 70.8735 197.945 71.6194 197.801 72.3185C198.819 71.8645 199.87 71.6006 200.956 71.5268C202.153 71.4454 203.371 71.587 204.61 71.9517Z" fill="#B02CAD"/>
<path d="M24.4813 81.6241C24.7687 80.7388 24.8704 79.8422 24.7862 78.934C24.7198 78.2171 24.5316 77.5726 24.2216 77.0005C23.9261 76.4114 23.4972 75.9435 22.935 75.597C22.5602 75.366 22.2132 75.2613 21.8939 75.283C21.7662 75.2917 21.6095 75.3344 21.4239 75.4112C21.5734 75.4651 21.6556 75.5718 21.6704 75.7311C21.6792 75.8267 21.6576 75.9404 21.6056 76.0722C21.3034 76.7981 21.0869 77.5824 20.9561 78.425C20.8238 79.2516 20.7961 80.0791 20.8728 80.9076C20.9614 81.8635 21.1892 82.7618 21.5562 83.6026C21.792 84.0675 22.0263 84.4284 22.2589 84.6851C22.365 84.7901 22.4681 84.8632 22.5683 84.9045C23.0018 84.5544 23.3755 84.0801 23.6895 83.4816C24.0195 82.882 24.2834 82.2628 24.4813 81.6241ZM23.369 73.2588C24.1659 73.365 24.8681 73.6619 25.4755 74.1497C26.0829 74.6374 26.565 75.2459 26.9217 75.9752C27.2769 76.6885 27.4914 77.4435 27.5652 78.2401C27.6523 79.18 27.558 80.1564 27.2824 81.1691C27.0067 82.1819 26.588 83.1242 26.0262 83.996C25.4644 84.8679 24.8146 85.5694 24.0767 86.1006C23.3837 86.5966 22.686 86.8685 21.9836 86.9162C21.2813 86.964 20.6468 86.7907 20.0801 86.3964C19.5135 86.0021 19.0728 85.4068 18.7581 84.6105C18.41 83.8005 18.188 82.8777 18.092 81.8422C18.0345 81.2208 18.0263 80.6122 18.0675 80.0162C17.9587 80.0556 17.7925 80.083 17.569 80.0982C17.0263 80.1351 16.738 79.9703 16.704 79.6039C16.6922 79.4764 16.6986 79.3718 16.7231 79.29C17.1257 77.7395 17.818 76.3698 18.8002 75.1808C19.7969 73.9747 21.0056 73.3234 22.4263 73.2268C22.6338 73.2126 22.948 73.2233 23.369 73.2588ZM35.7457 77.4433C36.3225 76.9071 36.7847 76.4347 37.1324 76.0263C37.4961 75.6168 37.7639 75.2138 37.936 74.8174C37.0534 74.6529 35.7424 74.3734 34.0031 73.9786L34.3327 78.838C34.7747 78.4071 35.0319 78.1491 35.1044 78.0641L35.7457 77.4433ZM39.9107 80.5268C40.0148 80.2632 40.2662 80.0297 40.665 79.8262C41.0624 79.6068 41.4526 79.4841 41.8357 79.458C42.3625 79.4222 42.6414 79.5716 42.6724 79.9061C42.6812 80.0017 42.6676 80.1149 42.6315 80.2456C42.1187 81.8196 41.7611 83.3349 41.5587 84.7915C41.5084 85.1156 41.3043 85.4261 40.9462 85.723C40.8058 85.9409 40.5746 86.133 40.2526 86.2992C39.9467 86.4643 39.634 86.5577 39.3148 86.5794C39.0434 86.5978 38.8148 86.5573 38.6288 86.4577C38.4589 86.357 38.3548 86.1877 38.3167 85.9499C38.157 84.9186 37.7259 83.994 37.0237 83.176C36.3374 82.357 35.5035 81.8526 34.5221 81.6628L34.7234 85.1361C34.7355 85.4399 34.5059 85.7361 34.0347 86.0246C33.5794 86.3121 33.1283 86.471 32.6813 86.5014C32.4418 86.5177 32.2466 86.4909 32.0955 86.421C31.943 86.3352 31.8579 86.1967 31.8402 86.0055L31.6065 82.7027C31.3857 82.5735 31.2665 82.4132 31.2488 82.2221C31.2281 81.999 31.3279 81.7758 31.5482 81.5524C31.3594 78.6474 31.1873 75.7492 31.0319 72.858C31.0169 72.5223 31.2138 72.2204 31.6226 71.9521C32.046 71.6668 32.4812 71.5089 32.9281 71.4785C33.2633 71.4557 33.5102 71.5191 33.6686 71.6687C35.4529 72.0283 37.3054 72.4314 39.2262 72.8779C39.5076 72.7947 39.7042 72.7492 39.816 72.7416C40.0873 72.7232 40.3008 72.7728 40.4562 72.8905C40.6262 72.9911 40.7223 73.161 40.7444 73.3999C40.8049 74.0531 40.6455 74.6732 40.2661 75.2601C39.8853 75.8311 39.3428 76.4772 38.6385 77.1985L38.1995 77.6612C37.5026 78.4621 36.8216 79.1737 36.1564 79.7961C37.4993 80.0735 38.62 80.7268 39.5185 81.7559C39.5676 81.5922 39.6983 81.1825 39.9107 80.5268ZM48.9924 80.9433C50.549 79.5389 51.739 78.0792 52.5625 76.5642C51.2501 76.2687 49.8935 75.5834 48.4927 74.5083C48.5951 75.9603 48.7617 78.1053 48.9924 80.9433ZM55.4099 75.048C55.529 75.12 55.5945 75.2198 55.6063 75.3472C55.6166 75.4588 55.595 75.5724 55.5415 75.6883C54.846 77.3709 53.8622 78.8887 52.59 80.2418C51.3178 81.5948 49.7502 82.9679 47.8874 84.3612C47.7062 84.4857 47.5003 84.6039 47.2697 84.7158C47.0376 84.8117 46.8098 84.8673 46.5864 84.8825C46.3469 84.8988 46.1335 84.8492 45.9461 84.7336C45.7412 84.6033 45.6292 84.4346 45.61 84.2274C45.585 83.9566 45.7145 83.7073 45.9986 83.4796C46.029 83.4615 46.0587 83.4354 46.0877 83.4014C46.1167 83.3673 46.1616 83.3322 46.2225 83.296L45.7693 77.3629C45.6817 76.0702 45.5313 74.1005 45.3183 71.4536C45.2993 71.4228 45.2862 71.3676 45.2788 71.288C45.2759 71.2561 45.2845 71.1754 45.3046 71.0457L45.2802 70.7829C45.2681 70.4791 45.452 70.2101 45.8319 69.9758C46.2104 69.7256 46.623 69.5853 47.07 69.5549C47.3733 69.5343 47.6179 69.5738 47.8039 69.6734C48.0057 69.7719 48.1178 69.9406 48.1399 70.1796L48.162 70.4186C50.34 72.9478 52.5977 74.4296 54.935 74.8638C55.1819 74.9272 55.3402 74.9886 55.4099 75.048ZM59.083 71.4795C59.0694 71.1598 59.2751 70.8653 59.6999 70.5959C60.1232 70.3106 60.5584 70.1527 61.0054 70.1223C61.2608 70.105 61.4735 70.1466 61.6434 70.2473C61.8119 70.332 61.8985 70.4865 61.9032 70.7106L62.4109 83.7343C62.4259 84.0699 62.2218 84.3804 61.7984 84.6657C61.3736 84.9351 60.9377 85.0849 60.4907 85.1153C59.9001 85.1555 59.5913 84.944 59.5645 84.4809L59.083 71.4795ZM58.7429 68.3283C58.7316 68.5535 58.803 68.717 58.957 68.8187C59.1269 68.9194 59.3396 68.9611 59.595 68.9437C60.026 68.9144 60.4539 68.765 60.8788 68.4957C61.3036 68.2263 61.5245 67.9227 61.5414 67.5849C61.5953 66.7796 61.6277 66.1762 61.6387 65.7746C61.6657 65.372 61.3998 65.1897 60.8411 65.2277C60.4101 65.257 59.9742 65.4069 59.5334 65.6773C59.0926 65.9478 58.8703 66.2355 58.8664 66.5403L58.7429 68.3283ZM74.7218 69.6225C74.6073 72.5481 74.6688 75.2934 74.9064 77.8585C75.0215 79.1011 75.186 80.3565 75.3999 81.6245C75.4406 81.7179 75.464 81.7965 75.4699 81.8602C75.4743 81.908 75.465 81.9808 75.4419 82.0786C75.4434 82.0945 75.4362 82.103 75.4202 82.1041L75.4246 82.1519C75.3539 82.4293 75.1526 82.6834 74.8206 82.9144C74.4871 83.1295 74.1223 83.2665 73.7262 83.3255C73.0936 83.4327 72.6949 83.2914 72.5303 82.9018C71.8329 81.4422 70.7551 79.4313 69.2969 76.8692L68.9476 76.2196C69.0044 78.2197 69.1216 80.3521 69.2992 82.6165C69.3302 82.9511 69.1348 83.269 68.7129 83.5702C68.2895 83.8555 67.8464 84.0139 67.3835 84.0454C67.0961 84.065 66.8595 84.0249 66.6736 83.9254C66.4876 83.8258 66.3908 83.648 66.3832 83.392C66.0775 79.052 66.0088 74.9284 66.1769 71.0212L66.192 70.924C66.1276 70.5756 66.3136 70.2423 66.75 69.9241C67.1863 69.6058 67.636 69.431 68.0989 69.3995C68.5778 69.3669 68.8879 69.5062 69.0292 69.8172C69.6684 71.1685 70.5919 72.9013 71.7998 75.0156C71.7568 73.5115 71.7835 71.9786 71.8798 70.4169C71.8982 70.095 72.1278 69.7989 72.5685 69.5284C73.0079 69.242 73.451 69.0836 73.898 69.0532C74.4726 69.0142 74.7472 69.2039 74.7218 69.6225ZM83.911 75.4185L83.7638 75.9094L85.5705 77.2054L85.3387 76.5238C85.1856 76.0853 84.8743 75.1526 84.4048 73.7256L83.911 75.4185ZM85.9943 68.2547C86.3462 69.6256 86.7562 71.0166 87.2242 72.4276C87.7068 73.8217 88.2811 75.4259 88.9471 77.2403C89.5724 78.9614 89.9834 80.1038 90.1802 80.6675C90.2006 80.7142 90.2152 80.7854 90.2241 80.881C90.2595 81.2633 90.075 81.6126 89.6706 81.9286C89.2647 82.2288 88.8302 82.3946 88.3673 82.4261C87.9842 82.4521 87.6793 82.3687 87.4526 82.1757C86.9439 81.7133 86.4135 81.2764 85.8613 80.865C85.3092 80.4537 84.5878 79.9496 83.6972 79.3529L82.8473 78.7614C82.3097 80.2408 81.889 81.3356 81.5853 82.0456C81.4957 82.2922 81.221 82.5353 80.7613 82.775C80.3161 82.9976 79.894 83.1225 79.4949 83.1497C79.0479 83.1801 78.8112 83.0519 78.7846 82.7651C78.7772 82.6854 78.7923 82.5882 78.8299 82.4734C79.1995 81.2619 79.6408 79.8692 80.1536 78.2952L80.5435 77.0423C80.1075 76.6711 79.8896 76.4855 79.8896 76.4855C79.7675 76.3816 79.6998 76.2579 79.6865 76.1146C79.6614 75.8437 79.8134 75.5769 80.1425 75.314C80.47 75.0352 80.8456 74.8413 81.2693 74.7324C81.8658 72.8481 82.4114 70.9352 82.9063 68.9938C82.9495 68.7664 83.1313 68.5616 83.4518 68.3795C83.7867 68.1804 84.1435 68.0439 84.5222 67.9701C84.7862 67.8719 85.014 67.8164 85.2055 67.8033C85.6525 67.7729 85.9154 67.9234 85.9943 68.2547ZM97.9317 73.2145C98.5085 72.6783 98.9708 72.206 99.3185 71.7976C99.6821 71.3881 99.95 70.9851 100.122 70.5886C99.2394 70.4242 97.9284 70.1446 96.1891 69.7498L96.5188 74.6092C96.9608 74.1783 97.218 73.9204 97.2905 73.8353L97.9317 73.2145ZM102.097 76.298C102.201 76.0345 102.452 75.8009 102.851 75.5974C103.248 75.378 103.639 75.2553 104.022 75.2293C104.549 75.1934 104.827 75.3428 104.858 75.6774C104.867 75.773 104.854 75.8861 104.818 76.0168C104.305 77.5908 103.947 79.1061 103.745 80.5628C103.694 80.8868 103.49 81.1973 103.132 81.4942C102.992 81.7122 102.761 81.9042 102.439 82.0704C102.133 82.2355 101.82 82.3289 101.501 82.3506C101.229 82.3691 101.001 82.3285 100.815 82.2289C100.645 82.1283 100.541 81.959 100.503 81.7211C100.343 80.6899 99.912 79.7653 99.2097 78.9473C98.5234 78.1282 97.6896 77.6238 96.7082 77.434L96.9095 80.9073C96.9216 81.2111 96.692 81.5073 96.2207 81.7958C95.7654 82.0833 95.3143 82.2423 94.8674 82.2727C94.6279 82.2889 94.4327 82.2621 94.2816 82.1922C94.1291 82.1064 94.044 81.9679 94.0263 81.7767L93.7926 78.474C93.5718 78.3447 93.4525 78.1845 93.4348 77.9933C93.4142 77.7702 93.514 77.547 93.7342 77.3236C93.5454 74.4186 93.3733 71.5205 93.218 68.6292C93.2029 68.2936 93.3998 67.9916 93.8087 67.7233C94.2321 67.438 94.6672 67.2802 95.1142 67.2498C95.4494 67.227 95.6962 67.2904 95.8547 67.4399C97.6389 67.7995 99.4915 68.2026 101.412 68.6492C101.694 68.5659 101.89 68.5205 102.002 68.5129C102.273 68.4944 102.487 68.544 102.642 68.6617C102.812 68.7624 102.908 68.9322 102.93 69.1712C102.991 69.8244 102.832 70.4444 102.452 71.0314C102.071 71.6024 101.529 72.2485 100.825 72.9697L100.386 73.4324C99.6887 74.2333 99.0077 74.945 98.3424 75.5674C99.6854 75.8448 100.806 76.498 101.705 77.5271C101.754 77.3635 101.884 76.9538 102.097 76.298ZM112.711 66.991C112.648 66.6586 112.829 66.3498 113.252 66.0645C113.69 65.7621 114.132 65.5958 114.579 65.5654C115.074 65.5317 115.361 65.6806 115.44 66.0119C116.027 68.5371 116.502 70.7093 116.863 72.5284C117.224 74.3475 117.488 76.1572 117.655 77.9575C117.879 80.3791 117.886 82.535 117.676 84.4251C117.51 85.9274 117.194 87.2875 116.728 88.5055C116.263 89.7236 115.558 90.6934 114.613 91.415C113.831 91.9972 113.017 92.317 112.171 92.3746C111.389 92.4278 110.604 92.2727 109.815 91.9095C109.028 91.5623 108.275 91.0604 107.555 90.4039C107.413 90.2533 107.336 90.1222 107.326 90.0107C107.297 89.692 107.5 89.3736 107.936 89.0553C108.358 88.7541 108.801 88.5877 109.264 88.5563C109.583 88.5345 109.838 88.6053 110.03 88.7686C110.117 88.8429 110.327 89.029 110.66 89.327C110.993 89.625 111.329 89.8747 111.669 90.076C112.025 90.2763 112.339 90.3672 112.61 90.3487C112.754 90.339 112.856 90.316 112.917 90.2798C113.21 90.1476 113.449 89.8668 113.634 89.4374C113.835 89.0069 113.991 88.6115 114.103 88.2512C114.214 87.891 114.282 87.6699 114.306 87.5881C114.601 86.6061 114.786 85.5755 114.863 84.4961C114.941 83.4327 114.952 82.2456 114.895 80.9348C114.832 79.913 114.776 79.1392 114.728 78.6135C114.382 79.3905 113.95 80.0131 113.431 80.4812C112.911 80.9335 112.251 81.1867 111.453 81.241C110.32 81.318 109.531 80.8667 109.087 79.8869C108.657 78.89 108.367 77.6593 108.215 76.1946L108.102 75.2404C107.872 72.755 107.911 70.4036 108.22 68.1862C108.256 67.8792 108.502 67.5899 108.959 67.3183C109.415 67.0468 109.859 66.8964 110.29 66.8671C110.514 66.8519 110.694 66.8877 110.83 66.9746C110.967 67.0615 111.027 67.1937 111.012 67.3711C110.816 69.2442 110.77 71.2594 110.873 73.4167C110.903 74.088 110.935 74.6068 110.969 74.9733C111.025 75.5787 111.128 76.2531 111.277 76.9964C111.435 77.6591 111.591 78.1294 111.745 78.4075L111.972 78.7768C112.064 78.5621 112.187 78.2411 112.341 77.8139C112.645 76.7671 112.851 75.5187 112.957 74.0685L113.064 72.8829C113.236 71.4443 113.284 70.3108 113.207 69.4824C113.169 69.0681 113.124 68.7586 113.073 68.5536L112.711 66.991ZM139.057 72.0532C139.241 71.4315 139.306 70.8419 139.255 70.2842C139.187 69.5514 138.924 68.968 138.466 68.5343C137.776 67.8437 136.698 67.5643 135.232 67.6961C135.178 70.2328 135.236 73.283 135.405 76.8467C136.271 76.3068 137.027 75.6222 137.673 74.7927C138.317 73.9472 138.779 73.0341 139.057 72.0532ZM135.299 65.8158C135.473 65.7879 135.744 65.7615 136.111 65.7365C138.058 65.6041 139.555 65.9832 140.601 66.874C141.385 67.5262 141.827 68.4019 141.929 69.5012C141.982 70.0747 141.918 70.7685 141.736 71.5824C141.348 73.1158 140.595 74.5218 139.477 75.8002C138.357 77.0628 137.035 78.0585 135.513 78.7873C135.599 80.4166 135.683 81.8378 135.763 83.0508C135.845 84.2797 135.915 85.301 135.974 86.1146C136.139 88.0594 136.271 90.0143 136.373 91.9793C136.388 92.315 136.176 92.626 135.737 92.9124C135.297 93.1988 134.838 93.3582 134.359 93.3908C133.801 93.4288 133.502 93.2407 133.464 92.8265L133.311 90.913C133.269 90.2906 133.154 88.7914 132.966 86.4154C132.794 84.0383 132.661 81.8189 132.566 79.7572C132.14 79.8343 131.719 79.8869 131.304 79.9151C131.001 79.9358 130.773 79.9032 130.62 79.8173C130.452 79.7326 130.36 79.6106 130.345 79.4513C130.319 79.1645 130.49 78.8482 130.86 78.5025C131.213 78.1578 131.59 77.9718 131.989 77.9447C132.212 77.9295 132.371 77.9107 132.466 77.8882C132.324 74.451 132.29 71.1426 132.365 67.9631C132.248 67.907 132.182 67.8073 132.169 67.6639C132.151 67.4727 132.234 67.2426 132.418 66.9736C132.409 66.878 132.411 66.7176 132.422 66.4924C132.439 66.1545 132.668 65.8504 133.108 65.5799C133.548 65.2935 133.983 65.1357 134.414 65.1064C134.685 65.0879 134.898 65.1296 135.052 65.2313C135.222 65.332 135.301 65.4949 135.29 65.7202L135.299 65.8158ZM155.779 75.2929C156.026 75.3562 156.159 75.4915 156.178 75.6986C156.202 75.9535 156.076 76.2426 155.801 76.566C155.496 76.9233 155.081 77.1199 154.554 77.1557C154.299 77.1731 154.08 77.1559 153.899 77.1041C153.028 76.8908 152.249 76.8075 151.562 76.8542C150.365 76.9356 149.179 77.401 148.005 78.2504C147.811 78.4079 147.567 78.5447 147.272 78.6609C146.992 78.7601 146.724 78.8184 146.469 78.8358C146.23 78.8521 146.034 78.8253 145.883 78.7554C145.731 78.6696 145.646 78.5311 145.628 78.3399C145.618 78.2284 145.625 78.1317 145.649 78.0499C145.993 76.7279 146.252 75.5399 146.428 74.4859C146.619 73.4308 146.713 72.3663 146.71 71.2923C146.721 69.8487 146.695 68.7923 146.633 68.1232C146.469 66.3547 146.001 65.0239 145.227 64.1306C145.139 64.0404 145.087 63.9157 145.072 63.7564C145.043 63.4377 145.239 63.1278 145.661 62.8266C146.081 62.5094 146.507 62.3361 146.938 62.3068C147.225 62.2873 147.439 62.3369 147.578 62.4557C147.793 62.5212 147.94 62.6395 148.021 62.8104C148.517 63.8347 149.15 64.6895 149.921 65.3746C150.689 66.0437 151.553 66.3457 152.511 66.2806C152.686 66.2687 152.947 66.2189 153.292 66.1313C153.512 66.0842 153.655 66.0585 153.718 66.0542C153.99 66.0357 154.195 66.0859 154.335 66.2047C154.489 66.3064 154.575 66.4608 154.595 66.668C154.615 66.891 154.54 67.1206 154.369 67.3566C154.214 67.5916 153.99 67.7672 153.695 67.8834C153.061 68.151 152.417 68.307 151.763 68.3515C150.98 68.4047 150.215 68.2964 149.468 68.0266C149.518 68.921 149.54 69.5928 149.534 70.0422L149.506 71.5591C150.118 71.4053 150.732 71.2673 151.347 71.1453L151.68 71.0986C152.318 71.0552 152.658 71.2486 152.697 71.6788C152.724 71.9655 152.588 72.2313 152.289 72.476C151.991 72.7208 151.677 72.8864 151.347 72.973C150.861 73.1022 150.193 73.2519 149.341 73.422C149.238 74.2146 149.114 74.9605 148.97 75.6597C149.988 75.2057 151.04 74.9418 152.125 74.868C153.323 74.7866 154.54 74.9282 155.779 75.2929ZM166.248 71.9838C166.535 71.0985 166.637 70.2018 166.553 69.2937C166.487 68.5767 166.298 67.9322 165.988 67.3601C165.693 66.771 165.264 66.3031 164.702 65.9566C164.327 65.7256 163.98 65.6209 163.661 65.6426C163.533 65.6513 163.376 65.694 163.191 65.7708C163.34 65.8247 163.422 65.9314 163.437 66.0907C163.446 66.1863 163.424 66.3 163.372 66.4318C163.07 67.1577 162.854 67.942 162.723 68.7846C162.591 69.6112 162.563 70.4387 162.639 71.2672C162.728 72.2231 162.956 73.1215 163.323 73.9622C163.559 74.4272 163.793 74.788 164.026 75.0447C164.132 75.1497 164.235 75.2229 164.335 75.2641C164.768 74.914 165.142 74.4397 165.456 73.8412C165.786 73.2416 166.05 72.6225 166.248 71.9838ZM165.136 63.6185C165.933 63.7246 166.635 64.0215 167.242 64.5093C167.85 64.997 168.332 65.6055 168.688 66.3348C169.044 67.0481 169.258 67.8031 169.332 68.5997C169.419 69.5396 169.325 70.516 169.049 71.5287C168.773 72.5415 168.355 73.4838 167.793 74.3557C167.231 75.2275 166.581 75.929 165.843 76.4602C165.15 76.9562 164.453 77.2281 163.75 77.2759C163.048 77.3236 162.413 77.1503 161.847 76.756C161.28 76.3617 160.839 75.7664 160.525 74.9701C160.177 74.1601 159.955 73.2374 159.859 72.2018C159.801 71.5805 159.793 70.9718 159.834 70.3758C159.725 70.4153 159.559 70.4426 159.336 70.4578C158.793 70.4947 158.505 70.3299 158.471 69.9635C158.459 69.8361 158.465 69.7314 158.49 69.6496C158.892 68.0992 159.585 66.7294 160.567 65.5404C161.564 64.3343 162.772 63.683 164.193 63.5864C164.4 63.5723 164.715 63.583 165.136 63.6185ZM180.321 69.2472C180.504 68.6255 180.57 68.0359 180.518 67.4783C180.45 66.7454 180.188 66.1621 179.73 65.7283C179.039 65.0377 177.961 64.7583 176.496 64.8901C176.441 67.4268 176.499 70.477 176.669 74.0407C177.534 73.5008 178.29 72.8162 178.936 71.9867C179.581 71.1412 180.042 70.2281 180.321 69.2472ZM176.562 63.0098C176.736 62.9819 177.007 62.9555 177.374 62.9305C179.322 62.7981 180.819 63.1772 181.865 64.068C182.648 64.7202 183.091 65.5959 183.193 66.6952C183.246 67.2687 183.182 67.9625 183 68.7764C182.612 70.3099 181.859 71.7158 180.74 72.9943C179.62 74.2568 178.299 75.2525 176.776 75.9813C176.863 77.6107 176.946 79.0318 177.026 80.2448C177.108 81.4738 177.179 82.495 177.238 83.3086C177.402 85.2534 177.535 87.2083 177.637 89.1733C177.652 89.509 177.44 89.82 177 90.1064C176.561 90.3928 176.102 90.5522 175.623 90.5848C175.064 90.6228 174.766 90.4347 174.727 90.0205L174.574 88.107C174.533 87.4846 174.418 85.9854 174.23 83.6094C174.058 81.2323 173.924 79.0129 173.83 76.9512C173.403 77.0283 172.982 77.0809 172.567 77.1092C172.264 77.1298 172.036 77.0972 171.884 77.0114C171.715 76.9266 171.624 76.8046 171.609 76.6453C171.582 76.3585 171.754 76.0422 172.123 75.6965C172.477 75.3518 172.853 75.1659 173.252 75.1387C173.476 75.1235 173.635 75.1047 173.729 75.0823C173.587 71.645 173.554 68.3366 173.629 65.1572C173.511 65.101 173.446 65.0013 173.432 64.8579C173.415 64.6667 173.498 64.4366 173.682 64.1676C173.673 64.072 173.674 63.9116 173.685 63.6864C173.702 63.3485 173.931 63.0444 174.372 62.774C174.811 62.4876 175.246 62.3297 175.677 62.3004C175.949 62.282 176.161 62.3236 176.315 62.4254C176.485 62.526 176.565 62.689 176.553 62.9142L176.562 63.0098ZM187.931 56.5853C187.935 56.2805 188.165 55.9922 188.622 55.7207C189.077 55.4332 189.521 55.2748 189.952 55.2455C190.462 55.2108 190.727 55.3852 190.747 55.7686C190.756 58.6378 190.697 62.6017 190.572 67.6604C190.506 71.1117 190.464 73.351 190.447 74.3783C190.446 74.715 190.219 75.0351 189.765 75.3385C189.325 75.6249 188.882 75.7833 188.435 75.8137C187.813 75.856 187.504 75.6445 187.509 75.1793C187.56 69.6607 187.701 63.4628 187.931 56.5853ZM205.645 71.9019C205.892 71.9653 206.025 72.1005 206.044 72.3076C206.067 72.5625 205.942 72.8517 205.666 73.175C205.362 73.5324 204.947 73.7289 204.42 73.7648C204.164 73.7821 203.946 73.7649 203.764 73.7131C202.893 73.4998 202.115 73.4165 201.428 73.4632C200.231 73.5446 199.045 74.01 197.871 74.8594C197.677 75.0169 197.432 75.1538 197.138 75.27C196.858 75.3692 196.59 75.4275 196.335 75.4448C196.095 75.4611 195.9 75.4343 195.749 75.3644C195.597 75.2786 195.511 75.1401 195.494 74.9489C195.483 74.8374 195.49 74.7407 195.515 74.6589C195.858 73.3369 196.118 72.1489 196.293 71.0949C196.485 70.0398 196.579 68.9753 196.576 67.9014C196.587 66.4577 196.561 65.4013 196.499 64.7322C196.335 62.9638 195.867 61.6329 195.093 60.7396C195.004 60.6495 194.953 60.5247 194.938 60.3654C194.908 60.0468 195.105 59.7368 195.526 59.4356C195.947 59.1184 196.373 58.9452 196.804 58.9159C197.091 58.8963 197.304 58.946 197.444 59.0647C197.659 59.1303 197.806 59.2485 197.886 59.4194C198.383 60.4438 199.016 61.2985 199.786 61.9836C200.555 62.6528 201.419 62.9548 202.376 62.8896C202.552 62.8777 202.812 62.8279 203.158 62.7403C203.378 62.6933 203.52 62.6676 203.584 62.6632C203.856 62.6448 204.061 62.6949 204.201 62.8137C204.355 62.9154 204.441 63.0699 204.46 63.277C204.481 63.5 204.406 63.7296 204.235 63.9657C204.08 64.2007 203.855 64.3763 203.561 64.4925C202.927 64.76 202.283 64.916 201.628 64.9606C200.846 65.0137 200.081 64.9054 199.333 64.6357C199.384 65.53 199.406 66.2019 199.4 66.6512L199.371 68.1682C199.984 68.0143 200.597 67.8764 201.213 67.7544L201.546 67.7077C202.184 67.6643 202.523 67.8576 202.563 68.2878C202.59 68.5746 202.454 68.8403 202.155 69.0851C201.856 69.3298 201.543 69.4955 201.213 69.582C200.727 69.7112 200.058 69.8609 199.207 70.0311C199.103 70.8237 198.98 71.5696 198.836 72.2687C199.854 71.8147 200.906 71.5508 201.991 71.477C203.188 71.3956 204.406 71.5372 205.645 71.9019Z" fill="#39FF14"/>
</svg>
